<?xml version="1.0" encoding="UTF-8"?>
<svg width="600" height="380" version="1.1" xmlns="http://www.w3.org/2000/svg">
 <path d="m589.99 10.56h-532.86c-25.599 0-47.13 21.556-47.13 47.121l6e-3 311.75-6e-3 6e-3h532.88c25.607 0 47.121-21.548 47.121-47.13z" fill="#fff"/>
 <path d="m57.12 10.56c-25.599 0-47.117 21.544-47.117 47.117v293.63c53.376-32.942 284.47-163.05 579.99-157.7v-183.05zm252.09 50.616h14.787l42.246 102.73h-20.969l-8.605-21.278h-41.195l-9.0501 21.278h-20.82zm-152.84 0.29688h13.427l27.447 65.774 28.523-65.774h13.588l16.74 102.43h-19.769l-9.0501-62.003-27.608 63.363h-5.4276l-26.705-63.363-10.113 62.003h-19.757zm-62.164 0.16079c11.014 0 21.125 3.7583 29.574 11.152l-10.262 13.427c-5.1316-5.7309-9.9689-8.1352-16.307-8.1352-7.9929 0-14.169 4.9652-14.169 11.152 0 5.427 3.4578 8.2922 15.232 12.673 11.166 4.0681 15.542 6.3406 20.066 10.113 5.8913 4.9797 8.9018 12.221 8.9018 21.117 0 19.758-14.171 33.184-35.001 33.184-14.483 0-25.496-6.039-34.544-19.163l12.673-12.215c4.5239 8.5921 12.061 13.427 21.117 13.427 8.9044 0 15.541-6.0277 15.541-14.181 0-4.0682-1.8067-7.5352-5.4276-10.101-1.9666-1.5108-5.7359-3.0202-14.033-6.0334-18.104-6.4905-24.739-13.874-24.739-27.15 0-16.897 13.274-29.264 31.379-29.264zm222.23 28.955-14.626 36.2h28.671z" fill="#004e83"/>
 <path d="m28.13 369.44h514.75c25.607 0 47.121-21.548 47.121-47.121l-6e-3 -104.4c-280.01-5.216-501.38 115.06-561.86 151.53" fill="#dc291a"/>
</svg>
