<?xml version="1.0" encoding="utf-8"?>
<!-- Generator: Adobe Illustrator 23.0.5, SVG Export Plug-In . SVG Version: 6.00 Build 0)  -->
<svg version="1.1" id="Capa_1" xmlns="http://www.w3.org/2000/svg" xmlns:xlink="http://www.w3.org/1999/xlink" x="0px" y="0px"
	 viewBox="0 0 206.5 45" style="enable-background:new 0 0 206.5 45;" xml:space="preserve">
<style type="text/css">
	.st0{fill:#FFFFFF;}
</style>
<path class="st0" d="M124.4,40L123,27.4c-0.1-1-0.2-1.9-0.3-2.9c-0.1-1-0.2-1.9-0.2-2.9c-0.1,0.9-0.3,1.9-0.6,2.9
	c-0.3,1-0.6,2.1-0.9,3.3L117.1,40h-7.2l-3.8-12.2c-0.4-1.2-0.7-2.2-0.9-3.3c-0.2-1-0.4-2-0.6-2.9c-0.1,1-0.2,2-0.2,2.9
	c-0.1,1-0.2,1.9-0.3,2.9L102.6,40H90.8l5.7-31.8h12.4l2.4,7.9c0.1,0.2,0.2,0.6,0.3,1.1c1,3.3,1.6,6,1.9,8.2h0.2
	c0.2-1.3,0.5-2.8,0.8-4.3c0.4-1.5,0.9-3.2,1.5-5.1l2.5-7.7h12.4l5.3,31.8h-11.8V40z"/>
<path class="st0" d="M151.1,28.4h5l-1-3.6c-0.5-1.8-0.8-3.2-1-4.2s-0.3-1.9-0.3-2.8h-0.2c0,0.9-0.2,1.8-0.3,2.8
	c-0.2,1-0.5,2.4-1,4.2L151.1,28.4z M135.1,40l12-31.8h13.4L172.3,40h-13l-1.1-4h-9.1l-1,4H135.1z"/>
<path class="st0" d="M188.9,32.8c-0.3-0.7-0.6-1.2-0.7-1.6c-0.2-0.4-0.3-0.8-0.4-1.1c-0.1,0.3-0.2,0.6-0.3,1
	c-0.2,0.4-0.4,0.9-0.8,1.6l-3.8,7.2h-13.8L181,23.1L170.5,8.2h13.8l2.5,5.2c0,0.1,0.1,0.2,0.1,0.3c0.5,1,0.8,1.8,0.9,2.3
	c0.1-0.4,0.2-0.8,0.4-1.2s0.4-0.9,0.6-1.5l2.5-5.2H205L194.5,23l12,17h-13.8L188.9,32.8z"/>
<path class="st0" d="M85.9,33.3c0.9-1.3,1.7-2.8,2.1-4.3c0.5-1.5,0.7-3.2,0.7-4.9c0-2.3-0.4-4.5-1.3-6.5s-2.1-3.8-3.8-5.3
	c-1.7-1.5-3.6-2.7-5.8-3.5c-2.2-0.8-4.6-1.2-7.1-1.2S65.8,8,63.6,8.8c-2.2,0.8-4.1,2-5.8,3.5c-1.6,1.5-2.9,3.3-3.8,5.3
	c-0.9,2-1.3,4.2-1.3,6.6s0.4,4.5,1.3,6.6c0.9,2,2.1,3.8,3.8,5.3c1.7,1.6,3.6,2.8,5.8,3.6c2.2,0.8,4.5,1.2,7.1,1.2
	c1.4,0,2.8-0.1,4.1-0.4c1.4-0.3,2.7-0.7,4.1-1.3l4.7,4.5l6.3-5.8L85.9,33.3z M70.8,30.2c-1,0-2-0.3-2.9-0.8l0,0
	c-0.8-0.5-1.5-1.2-2-2c0.1,0.1,0.1,0.2,0.2,0.3c-0.1-0.1-0.1-0.2-0.2-0.3l0,0c-0.5-0.9-0.8-2-0.8-3.3c0-1.1,0.2-2,0.6-2.9l0,0l0,0
	c1-1.8,2.9-3.1,5.1-3.1c1.7,0,3.3,0.8,4.4,2c-0.1-0.1-0.1-0.1,0,0c0.9,1.1,1.5,2.5,1.5,4C76.7,27.5,74.1,30.2,70.8,30.2z"/>
<path class="st0" d="M45.9,41c0,2.2-1.8,4-4,4H4c-2.2,0-4-1.8-4-4V4c0-2.2,1.8-4,4-4h38c2.2,0,4,1.8,4,4L45.9,41L45.9,41z M23,3
	C12.2,3,3.5,11.7,3.5,22.5S12.2,42,23,42c1.1,0,2.2-0.1,3.4-0.3c1.9-0.4,3.1-2.3,2.7-4.3c-0.2-0.9-0.8-1.7-1.6-2.2
	c-0.8-0.5-1.8-0.6-2.7-0.4c-0.6,0.1-1.1,0.1-1.6,0.1c-6.7,0-12.2-5.5-12.2-12.2s5.5-12.2,12.2-12.2S35.4,16,35.4,22.7
	c0,0.4,0,0.9-0.1,1.4c0,0.1,0,0.2,0,0.4c0,1.9,1.6,3.5,3.5,3.5c1.6,0,3.3-1,3.5-2.8c0.1-1,0.2-1.8,0.2-2.7C42.5,11.7,33.7,3,23,3
	 M31.1,25.4c-1.1-1.2-3.2-1.1-4.6,0.2c-0.7,0.6-1.1,1.4-1.2,2.3s0.1,1.7,0.7,2.3l8.9,9.6c0.5,0.6,1.3,0.9,2.1,0.9
	c0.9,0,1.8-0.4,2.6-1c1.4-1.3,1.6-3.4,0.5-4.6L31.1,25.4z"/>
</svg>
